<mxfile host="app.diagrams.net" modified="2023-05-10T14:53:41.901Z" agent="Mozilla/5.0 (Windows NT 10.0; Win64; x64) AppleWebKit/537.36 (KHTML, like Gecko) Chrome/113.0.0.0 Safari/537.36" etag="0cx4sIdBdru1ePO_gwsK" version="21.2.9" type="device">
  <diagram name="Página-1" id="ItoCFEnh0fc0-_jOK2Rc">
    <mxGraphModel dx="2577" dy="2131" grid="1" gridSize="10" guides="1" tooltips="1" connect="1" arrows="1" fold="1" page="1" pageScale="1" pageWidth="827" pageHeight="1169" background="#ffffff" math="0" shadow="0">
      <root>
        <mxCell id="0" />
        <mxCell id="1" parent="0" />
        <mxCell id="ulnthqZ8hp1moQ3BsTgQ-2" value="Cliente" style="rounded=1;arcSize=10;whiteSpace=wrap;html=1;align=center;labelBackgroundColor=none;fillColor=#09555B;strokeColor=#BAC8D3;fontColor=#EEEEEE;" parent="1" vertex="1">
          <mxGeometry x="50" y="40" width="100" height="40" as="geometry" />
        </mxCell>
        <mxCell id="fjhzI5hMC6Ckn3JjvEL3-2" value="Número do Cliente" style="ellipse;whiteSpace=wrap;html=1;align=center;fontStyle=4;labelBackgroundColor=none;fillColor=#cdeb8b;strokeColor=#36393d;" parent="1" vertex="1">
          <mxGeometry x="160" y="-79" width="100" height="40" as="geometry" />
        </mxCell>
        <mxCell id="fjhzI5hMC6Ckn3JjvEL3-3" value="&lt;span style=&quot;border-bottom: 1px dotted&quot;&gt;E-mail&lt;/span&gt;" style="ellipse;whiteSpace=wrap;html=1;align=center;labelBackgroundColor=none;fillColor=#cdeb8b;strokeColor=#36393d;" parent="1" vertex="1">
          <mxGeometry x="-60" y="-79" width="100" height="40" as="geometry" />
        </mxCell>
        <mxCell id="fjhzI5hMC6Ckn3JjvEL3-5" value="Contacto telefónico" style="ellipse;whiteSpace=wrap;html=1;align=center;labelBackgroundColor=none;fillColor=#cdeb8b;strokeColor=#36393d;" parent="1" vertex="1">
          <mxGeometry x="-100" y="1" width="100" height="40" as="geometry" />
        </mxCell>
        <mxCell id="fjhzI5hMC6Ckn3JjvEL3-6" value="Morada" style="ellipse;whiteSpace=wrap;html=1;align=center;labelBackgroundColor=none;fillColor=#cdeb8b;strokeColor=#36393d;" parent="1" vertex="1">
          <mxGeometry x="200" y="1" width="100" height="40" as="geometry" />
        </mxCell>
        <mxCell id="fjhzI5hMC6Ckn3JjvEL3-8" value="Nome" style="ellipse;whiteSpace=wrap;html=1;align=center;labelBackgroundColor=none;fillColor=#cdeb8b;strokeColor=#36393d;" parent="1" vertex="1">
          <mxGeometry x="50" y="-119" width="100" height="40" as="geometry" />
        </mxCell>
        <mxCell id="fjhzI5hMC6Ckn3JjvEL3-68" style="edgeStyle=orthogonalEdgeStyle;shape=link;rounded=0;orthogonalLoop=1;jettySize=auto;html=1;exitX=0.5;exitY=0;exitDx=0;exitDy=0;strokeColor=#736CA8;fontColor=#1A1A1A;" parent="1" source="fjhzI5hMC6Ckn3JjvEL3-13" target="fjhzI5hMC6Ckn3JjvEL3-69" edge="1">
          <mxGeometry relative="1" as="geometry">
            <mxPoint x="220.42857142857144" y="520" as="targetPoint" />
          </mxGeometry>
        </mxCell>
        <mxCell id="fjhzI5hMC6Ckn3JjvEL3-13" value="Encomenda" style="rounded=1;arcSize=10;whiteSpace=wrap;html=1;align=center;labelBackgroundColor=none;fillColor=#09555B;strokeColor=#BAC8D3;fontColor=#EEEEEE;" parent="1" vertex="1">
          <mxGeometry x="169.96" y="401" width="100" height="40" as="geometry" />
        </mxCell>
        <mxCell id="fjhzI5hMC6Ckn3JjvEL3-14" value="Número da Encomenda" style="ellipse;whiteSpace=wrap;html=1;align=center;fontStyle=4;labelBackgroundColor=none;fillColor=#cdeb8b;strokeColor=#36393d;" parent="1" vertex="1">
          <mxGeometry x="290.00000000000006" y="478" width="100" height="40" as="geometry" />
        </mxCell>
        <mxCell id="fjhzI5hMC6Ckn3JjvEL3-15" value="&lt;span style=&quot;border-bottom: 1px dotted&quot;&gt;Data da Encomenda&lt;/span&gt;" style="ellipse;whiteSpace=wrap;html=1;align=center;labelBackgroundColor=none;fillColor=#cdeb8b;strokeColor=#36393d;" parent="1" vertex="1">
          <mxGeometry x="50" y="478" width="100" height="40" as="geometry" />
        </mxCell>
        <mxCell id="fjhzI5hMC6Ckn3JjvEL3-18" value="Morada" style="ellipse;whiteSpace=wrap;html=1;align=center;labelBackgroundColor=none;fillColor=#cdeb8b;strokeColor=#36393d;shadow=0;" parent="1" vertex="1">
          <mxGeometry x="169.96" y="518" width="100" height="40" as="geometry" />
        </mxCell>
        <mxCell id="fjhzI5hMC6Ckn3JjvEL3-34" value="" style="edgeStyle=orthogonalEdgeStyle;rounded=0;orthogonalLoop=1;jettySize=auto;html=1;strokeColor=#0B4D6A;exitX=0;exitY=0.75;exitDx=0;exitDy=0;entryX=0;entryY=0.5;entryDx=0;entryDy=0;" parent="1" source="fjhzI5hMC6Ckn3JjvEL3-26" target="fsZiaamCpNhLpa2996Bd-16" edge="1">
          <mxGeometry relative="1" as="geometry">
            <Array as="points">
              <mxPoint x="610" y="68" />
              <mxPoint x="580" y="68" />
              <mxPoint x="580" y="198" />
            </Array>
            <mxPoint x="600" y="198" as="targetPoint" />
          </mxGeometry>
        </mxCell>
        <mxCell id="fjhzI5hMC6Ckn3JjvEL3-26" value="Método de pagamento" style="rounded=1;arcSize=10;whiteSpace=wrap;html=1;align=center;labelBackgroundColor=none;fillColor=#09555B;strokeColor=#BAC8D3;fontColor=#EEEEEE;" parent="1" vertex="1">
          <mxGeometry x="610" y="40" width="100" height="40" as="geometry" />
        </mxCell>
        <mxCell id="fjhzI5hMC6Ckn3JjvEL3-27" value="Token" style="ellipse;whiteSpace=wrap;html=1;align=center;fontStyle=4;labelBackgroundColor=none;fillColor=#cdeb8b;strokeColor=#36393d;" parent="1" vertex="1">
          <mxGeometry x="678" y="-82" width="100" height="40" as="geometry" />
        </mxCell>
        <mxCell id="fjhzI5hMC6Ckn3JjvEL3-28" value="&lt;span style=&quot;border-bottom: 1px dotted&quot;&gt;Nome&lt;/span&gt;" style="ellipse;whiteSpace=wrap;html=1;align=center;labelBackgroundColor=none;fillColor=#cdeb8b;strokeColor=#36393d;" parent="1" vertex="1">
          <mxGeometry x="538" y="-82" width="100" height="40" as="geometry" />
        </mxCell>
        <mxCell id="fjhzI5hMC6Ckn3JjvEL3-37" value="Método de Pagamento Substituto" style="text;strokeColor=none;align=center;fillColor=none;html=1;verticalAlign=middle;whiteSpace=wrap;rounded=0;fontColor=#1A1A1A;" parent="1" vertex="1">
          <mxGeometry x="582" y="87" width="60" height="30" as="geometry" />
        </mxCell>
        <mxCell id="fjhzI5hMC6Ckn3JjvEL3-46" value="Pagamento pai" style="text;strokeColor=none;align=center;fillColor=none;html=1;verticalAlign=middle;whiteSpace=wrap;rounded=0;fontColor=#1A1A1A;" parent="1" vertex="1">
          <mxGeometry x="696" y="80" width="60" height="30" as="geometry" />
        </mxCell>
        <mxCell id="fjhzI5hMC6Ckn3JjvEL3-47" value="&lt;b style=&quot;border-color: var(--border-color);&quot;&gt;(RI - 1)&lt;/b&gt;" style="text;strokeColor=none;align=center;fillColor=none;html=1;verticalAlign=middle;whiteSpace=wrap;rounded=0;fontColor=#1A1A1A;" parent="1" vertex="1">
          <mxGeometry x="626" y="137" width="60" height="30" as="geometry" />
        </mxCell>
        <mxCell id="fjhzI5hMC6Ckn3JjvEL3-48" value="" style="shape=waypoint;fillStyle=solid;size=6;pointerEvents=1;points=[];fillColor=none;resizable=0;rotatable=0;perimeter=centerPerimeter;snapToPoint=1;strokeColor=#000000;fontColor=#1A1A1A;" parent="1" vertex="1">
          <mxGeometry x="581" y="-475" width="20" height="20" as="geometry" />
        </mxCell>
        <mxCell id="fjhzI5hMC6Ckn3JjvEL3-49" value="&lt;b&gt;(RI - 1): &lt;/b&gt;Um método de pagamento não pode ser seu substituto.&lt;b&gt;&amp;nbsp;&lt;/b&gt;" style="text;strokeColor=none;align=left;fillColor=none;html=1;verticalAlign=middle;whiteSpace=wrap;rounded=0;fontColor=#1A1A1A;" parent="1" vertex="1">
          <mxGeometry x="601" y="-480" width="219" height="30" as="geometry" />
        </mxCell>
        <mxCell id="fjhzI5hMC6Ckn3JjvEL3-52" value="Produto" style="rounded=1;arcSize=10;whiteSpace=wrap;html=1;align=center;labelBackgroundColor=none;fillColor=#09555B;strokeColor=#BAC8D3;fontColor=#EEEEEE;" parent="1" vertex="1">
          <mxGeometry x="810" y="399" width="100" height="40" as="geometry" />
        </mxCell>
        <mxCell id="fjhzI5hMC6Ckn3JjvEL3-53" value="SKU" style="ellipse;whiteSpace=wrap;html=1;align=center;fontStyle=4;labelBackgroundColor=none;fillColor=#cdeb8b;strokeColor=#36393d;" parent="1" vertex="1">
          <mxGeometry x="960" y="360" width="100" height="40" as="geometry" />
        </mxCell>
        <mxCell id="fjhzI5hMC6Ckn3JjvEL3-56" value="Nome" style="ellipse;whiteSpace=wrap;html=1;align=center;labelBackgroundColor=none;fillColor=#cdeb8b;strokeColor=#36393d;shadow=0;" parent="1" vertex="1">
          <mxGeometry x="920" y="280" width="100" height="40" as="geometry" />
        </mxCell>
        <mxCell id="fjhzI5hMC6Ckn3JjvEL3-59" value="Descrição" style="ellipse;whiteSpace=wrap;html=1;align=center;strokeColor=#36393d;fillColor=#cdeb8b;" parent="1" vertex="1">
          <mxGeometry x="960" y="438" width="100" height="40" as="geometry" />
        </mxCell>
        <mxCell id="fjhzI5hMC6Ckn3JjvEL3-60" value="Preço" style="ellipse;whiteSpace=wrap;html=1;align=center;strokeColor=#36393d;fillColor=#cdeb8b;" parent="1" vertex="1">
          <mxGeometry x="700" y="280" width="100" height="40" as="geometry" />
        </mxCell>
        <mxCell id="fjhzI5hMC6Ckn3JjvEL3-64" value="EAN" style="ellipse;whiteSpace=wrap;html=1;align=center;strokeColor=#36393d;fillColor=#cdeb8b;" parent="1" vertex="1">
          <mxGeometry x="810" y="264" width="100" height="40" as="geometry" />
        </mxCell>
        <mxCell id="fjhzI5hMC6Ckn3JjvEL3-65" value="" style="endArrow=none;html=1;rounded=0;dashed=1;dashPattern=1 2;strokeColor=#000000;fontColor=#1A1A1A;entryX=0.5;entryY=0;entryDx=0;entryDy=0;exitX=0.5;exitY=1;exitDx=0;exitDy=0;jumpSize=4;" parent="1" source="fjhzI5hMC6Ckn3JjvEL3-64" target="fjhzI5hMC6Ckn3JjvEL3-52" edge="1">
          <mxGeometry relative="1" as="geometry">
            <mxPoint x="830" y="330" as="sourcePoint" />
            <mxPoint x="920" y="170" as="targetPoint" />
          </mxGeometry>
        </mxCell>
        <mxCell id="fjhzI5hMC6Ckn3JjvEL3-66" value="" style="resizable=0;html=1;whiteSpace=wrap;align=right;verticalAlign=bottom;strokeColor=#D0CEE2;fontColor=#1A1A1A;fillColor=#5D7F99;" parent="fjhzI5hMC6Ckn3JjvEL3-65" connectable="0" vertex="1">
          <mxGeometry x="1" relative="1" as="geometry" />
        </mxCell>
        <mxCell id="fjhzI5hMC6Ckn3JjvEL3-69" value="" style="strokeWidth=2;html=1;shape=mxgraph.flowchart.extract_or_measurement;whiteSpace=wrap;strokeColor=#36393d;fillColor=#cce5ff;direction=west;" parent="1" vertex="1">
          <mxGeometry x="196" y="285" width="47.93" height="30" as="geometry" />
        </mxCell>
        <mxCell id="fjhzI5hMC6Ckn3JjvEL3-71" value="Venda(Paga)" style="rounded=1;arcSize=10;whiteSpace=wrap;html=1;align=center;labelBackgroundColor=none;fillColor=#09555B;strokeColor=#BAC8D3;fontColor=#EEEEEE;" parent="1" vertex="1">
          <mxGeometry x="260" y="198" width="100" height="40" as="geometry" />
        </mxCell>
        <mxCell id="fjhzI5hMC6Ckn3JjvEL3-72" value="Data de pagamento" style="ellipse;whiteSpace=wrap;html=1;align=center;fontStyle=0;labelBackgroundColor=none;fillColor=#cdeb8b;strokeColor=#36393d;" parent="1" vertex="1">
          <mxGeometry x="320" y="281" width="100" height="40" as="geometry" />
        </mxCell>
        <mxCell id="fjhzI5hMC6Ckn3JjvEL3-76" value="Fornecedor" style="rounded=1;arcSize=10;whiteSpace=wrap;html=1;align=center;labelBackgroundColor=none;fillColor=#09555B;strokeColor=#BAC8D3;fontColor=#EEEEEE;" parent="1" vertex="1">
          <mxGeometry x="-620" y="669" width="100" height="40" as="geometry" />
        </mxCell>
        <mxCell id="fjhzI5hMC6Ckn3JjvEL3-78" value="Nome" style="ellipse;whiteSpace=wrap;html=1;align=center;labelBackgroundColor=none;fillColor=#cdeb8b;strokeColor=#36393d;shadow=0;" parent="1" vertex="1">
          <mxGeometry x="-510" y="590" width="100" height="40" as="geometry" />
        </mxCell>
        <mxCell id="fjhzI5hMC6Ckn3JjvEL3-84" value="Endereço" style="ellipse;whiteSpace=wrap;html=1;align=center;strokeColor=#36393d;fillColor=#cdeb8b;" parent="1" vertex="1">
          <mxGeometry x="-620" y="550" width="100" height="40" as="geometry" />
        </mxCell>
        <mxCell id="fjhzI5hMC6Ckn3JjvEL3-87" value="Identificação fiscal" style="ellipse;whiteSpace=wrap;html=1;align=center;fontStyle=4;strokeColor=#36393d;fillColor=#cdeb8b;" parent="1" vertex="1">
          <mxGeometry x="-730" y="590" width="100" height="40" as="geometry" />
        </mxCell>
        <mxCell id="fjhzI5hMC6Ckn3JjvEL3-90" value="Contrato" style="rounded=1;arcSize=10;whiteSpace=wrap;html=1;align=center;labelBackgroundColor=none;fillColor=#09555B;strokeColor=#BAC8D3;fontColor=#EEEEEE;" parent="1" vertex="1">
          <mxGeometry x="-740" y="871" width="100" height="40" as="geometry" />
        </mxCell>
        <mxCell id="fjhzI5hMC6Ckn3JjvEL3-91" value="Data" style="ellipse;whiteSpace=wrap;html=1;align=center;fontStyle=4;strokeColor=#36393d;fillColor=#cdeb8b;" parent="1" vertex="1">
          <mxGeometry x="-740" y="790" width="100" height="40" as="geometry" />
        </mxCell>
        <mxCell id="fjhzI5hMC6Ckn3JjvEL3-113" value="" style="endArrow=none;html=1;rounded=0;strokeColor=#736CA8;fontColor=#1A1A1A;exitX=0.5;exitY=0;exitDx=0;exitDy=0;entryX=0.75;entryY=1;entryDx=0;entryDy=0;" parent="1" source="fjhzI5hMC6Ckn3JjvEL3-72" target="fjhzI5hMC6Ckn3JjvEL3-71" edge="1">
          <mxGeometry relative="1" as="geometry">
            <mxPoint x="210" y="510" as="sourcePoint" />
            <mxPoint x="370" y="510" as="targetPoint" />
          </mxGeometry>
        </mxCell>
        <mxCell id="fjhzI5hMC6Ckn3JjvEL3-114" value="1" style="resizable=0;html=1;whiteSpace=wrap;align=right;verticalAlign=bottom;strokeColor=#D0CEE2;fontColor=#1A1A1A;fillColor=#5D7F99;" parent="fjhzI5hMC6Ckn3JjvEL3-113" connectable="0" vertex="1">
          <mxGeometry x="1" relative="1" as="geometry" />
        </mxCell>
        <mxCell id="fjhzI5hMC6Ckn3JjvEL3-134" value="Empregado" style="rounded=1;arcSize=10;whiteSpace=wrap;html=1;align=center;labelBackgroundColor=none;fillColor=#09555B;strokeColor=#BAC8D3;fontColor=#EEEEEE;" parent="1" vertex="1">
          <mxGeometry x="-220" y="669" width="100" height="40" as="geometry" />
        </mxCell>
        <mxCell id="fjhzI5hMC6Ckn3JjvEL3-135" value="NIF" style="ellipse;whiteSpace=wrap;html=1;align=center;fontStyle=4;labelBackgroundColor=none;fillColor=#cdeb8b;strokeColor=#36393d;" parent="1" vertex="1">
          <mxGeometry x="-110" y="550" width="100" height="40" as="geometry" />
        </mxCell>
        <mxCell id="fjhzI5hMC6Ckn3JjvEL3-137" value="Data de nascimento" style="ellipse;whiteSpace=wrap;html=1;align=center;labelBackgroundColor=none;fillColor=#cdeb8b;strokeColor=#36393d;" parent="1" vertex="1">
          <mxGeometry x="-370" y="630" width="100" height="40" as="geometry" />
        </mxCell>
        <mxCell id="fjhzI5hMC6Ckn3JjvEL3-138" value="Nome" style="ellipse;whiteSpace=wrap;html=1;align=center;labelBackgroundColor=none;fillColor=#cdeb8b;strokeColor=#36393d;" parent="1" vertex="1">
          <mxGeometry x="-70" y="630" width="100" height="40" as="geometry" />
        </mxCell>
        <mxCell id="fjhzI5hMC6Ckn3JjvEL3-149" value="Número de segurança social" style="ellipse;whiteSpace=wrap;html=1;align=center;strokeColor=#36393d;fillColor=#cdeb8b;" parent="1" vertex="1">
          <mxGeometry x="-330" y="550" width="100" height="40" as="geometry" />
        </mxCell>
        <mxCell id="fjhzI5hMC6Ckn3JjvEL3-152" value="Departamento" style="rounded=1;arcSize=10;whiteSpace=wrap;html=1;align=center;labelBackgroundColor=none;fillColor=#09555B;strokeColor=#BAC8D3;fontColor=#EEEEEE;" parent="1" vertex="1">
          <mxGeometry x="-740" y="951" width="100" height="40" as="geometry" />
        </mxCell>
        <mxCell id="fjhzI5hMC6Ckn3JjvEL3-155" style="edgeStyle=orthogonalEdgeStyle;shape=link;rounded=0;orthogonalLoop=1;jettySize=auto;html=1;exitX=0.5;exitY=1;exitDx=0;exitDy=0;strokeColor=#736CA8;fontColor=#1A1A1A;" parent="1" source="fjhzI5hMC6Ckn3JjvEL3-156" target="fjhzI5hMC6Ckn3JjvEL3-160" edge="1">
          <mxGeometry relative="1" as="geometry">
            <mxPoint x="-193.57142857142856" y="972" as="targetPoint" />
          </mxGeometry>
        </mxCell>
        <mxCell id="fjhzI5hMC6Ckn3JjvEL3-156" value="Local de trabalho" style="rounded=1;arcSize=10;whiteSpace=wrap;html=1;align=center;labelBackgroundColor=none;fillColor=#09555B;strokeColor=#BAC8D3;fontColor=#EEEEEE;" parent="1" vertex="1">
          <mxGeometry x="-220" y="830" width="100" height="40" as="geometry" />
        </mxCell>
        <mxCell id="fjhzI5hMC6Ckn3JjvEL3-157" value="Localização" style="ellipse;whiteSpace=wrap;html=1;align=center;fontStyle=4;labelBackgroundColor=none;fillColor=#cdeb8b;strokeColor=#36393d;" parent="1" vertex="1">
          <mxGeometry x="-150" y="750" width="100" height="40" as="geometry" />
        </mxCell>
        <mxCell id="fjhzI5hMC6Ckn3JjvEL3-159" value="Endereço" style="ellipse;whiteSpace=wrap;html=1;align=center;labelBackgroundColor=none;fillColor=#cdeb8b;strokeColor=#36393d;shadow=0;" parent="1" vertex="1">
          <mxGeometry x="-290" y="750" width="100" height="40" as="geometry" />
        </mxCell>
        <mxCell id="fjhzI5hMC6Ckn3JjvEL3-160" value="" style="strokeWidth=2;html=1;shape=mxgraph.flowchart.extract_or_measurement;whiteSpace=wrap;strokeColor=#36393d;fillColor=#cce5ff;" parent="1" vertex="1">
          <mxGeometry x="-193.96000000000004" y="910" width="47.93" height="30" as="geometry" />
        </mxCell>
        <mxCell id="fjhzI5hMC6Ckn3JjvEL3-161" value="Escritório" style="rounded=1;arcSize=10;whiteSpace=wrap;html=1;align=center;labelBackgroundColor=none;fillColor=#09555B;strokeColor=#BAC8D3;fontColor=#EEEEEE;" parent="1" vertex="1">
          <mxGeometry x="-332" y="990" width="100" height="40" as="geometry" />
        </mxCell>
        <mxCell id="fjhzI5hMC6Ckn3JjvEL3-163" value="" style="endArrow=none;html=1;rounded=0;strokeColor=#736CA8;fontColor=#1A1A1A;exitX=0.5;exitY=1;exitDx=0;exitDy=0;exitPerimeter=0;entryX=0.5;entryY=0;entryDx=0;entryDy=0;" parent="1" source="fjhzI5hMC6Ckn3JjvEL3-160" target="fjhzI5hMC6Ckn3JjvEL3-161" edge="1">
          <mxGeometry relative="1" as="geometry">
            <mxPoint x="-244" y="952" as="sourcePoint" />
            <mxPoint x="-84" y="952" as="targetPoint" />
            <Array as="points">
              <mxPoint x="-170" y="960" />
              <mxPoint x="-282" y="960" />
            </Array>
          </mxGeometry>
        </mxCell>
        <mxCell id="fjhzI5hMC6Ckn3JjvEL3-172" value="Armazém" style="rounded=1;arcSize=10;whiteSpace=wrap;html=1;align=center;labelBackgroundColor=none;fillColor=#09555B;strokeColor=#BAC8D3;fontColor=#EEEEEE;" parent="1" vertex="1">
          <mxGeometry x="-110" y="990" width="100" height="40" as="geometry" />
        </mxCell>
        <mxCell id="fjhzI5hMC6Ckn3JjvEL3-173" value="" style="endArrow=none;html=1;rounded=0;strokeColor=#736CA8;fontColor=#1A1A1A;exitX=0.5;exitY=1;exitDx=0;exitDy=0;exitPerimeter=0;entryX=0.5;entryY=0;entryDx=0;entryDy=0;" parent="1" source="fjhzI5hMC6Ckn3JjvEL3-160" target="fjhzI5hMC6Ckn3JjvEL3-172" edge="1">
          <mxGeometry relative="1" as="geometry">
            <mxPoint x="-170" y="910" as="sourcePoint" />
            <mxPoint x="-10" y="910" as="targetPoint" />
            <Array as="points">
              <mxPoint x="-170" y="960" />
              <mxPoint x="-60" y="960" />
            </Array>
          </mxGeometry>
        </mxCell>
        <mxCell id="R8m9pl1qrMb0PDmQCdnL-3" value="" style="edgeStyle=orthogonalEdgeStyle;rounded=0;orthogonalLoop=1;jettySize=auto;html=1;strokeColor=#0B4D6A;entryX=1;entryY=0.5;entryDx=0;entryDy=0;" parent="1" target="fsZiaamCpNhLpa2996Bd-16" edge="1">
          <mxGeometry relative="1" as="geometry">
            <Array as="points">
              <mxPoint x="758" y="68" />
              <mxPoint x="758" y="198" />
            </Array>
            <mxPoint x="708" y="68" as="sourcePoint" />
            <mxPoint x="720" y="198" as="targetPoint" />
          </mxGeometry>
        </mxCell>
        <mxCell id="fsZiaamCpNhLpa2996Bd-1" value="Náo paga" style="rounded=1;arcSize=10;whiteSpace=wrap;html=1;align=center;labelBackgroundColor=none;fillColor=#09555B;strokeColor=#BAC8D3;fontColor=#EEEEEE;" parent="1" vertex="1">
          <mxGeometry x="90" y="199" width="100" height="40" as="geometry" />
        </mxCell>
        <mxCell id="fsZiaamCpNhLpa2996Bd-9" value="&lt;font&gt;tem &amp;gt;&lt;/font&gt;" style="shape=rhombus;perimeter=rhombusPerimeter;whiteSpace=wrap;html=1;align=center;fillColor=#CCE5FF;fontColor=#000000;" parent="1" vertex="1">
          <mxGeometry x="360" y="30" width="80" height="60" as="geometry" />
        </mxCell>
        <mxCell id="fsZiaamCpNhLpa2996Bd-11" style="edgeStyle=orthogonalEdgeStyle;shape=link;rounded=0;orthogonalLoop=1;jettySize=auto;html=1;exitX=0;exitY=0.5;exitDx=0;exitDy=0;strokeColor=#736CA8;fontColor=#1A1A1A;entryX=1;entryY=0.5;entryDx=0;entryDy=0;" parent="1" source="fsZiaamCpNhLpa2996Bd-9" target="ulnthqZ8hp1moQ3BsTgQ-2" edge="1">
          <mxGeometry relative="1" as="geometry">
            <mxPoint x="249.54999999999998" y="80" as="targetPoint" />
            <mxPoint x="249.54999999999998" y="40" as="sourcePoint" />
            <Array as="points" />
          </mxGeometry>
        </mxCell>
        <mxCell id="fsZiaamCpNhLpa2996Bd-13" value="" style="edgeStyle=orthogonalEdgeStyle;rounded=0;orthogonalLoop=1;jettySize=auto;html=1;strokeColor=#0B4D6A;exitX=0;exitY=0.25;exitDx=0;exitDy=0;entryX=1;entryY=0.5;entryDx=0;entryDy=0;" parent="1" source="fjhzI5hMC6Ckn3JjvEL3-26" target="fsZiaamCpNhLpa2996Bd-9" edge="1">
          <mxGeometry relative="1" as="geometry">
            <Array as="points">
              <mxPoint x="480" y="50" />
              <mxPoint x="480" y="60" />
            </Array>
            <mxPoint x="530" y="86" as="sourcePoint" />
            <mxPoint x="390" y="216" as="targetPoint" />
          </mxGeometry>
        </mxCell>
        <mxCell id="fsZiaamCpNhLpa2996Bd-14" value="&lt;b&gt;(RI - 2)&lt;/b&gt;" style="text;strokeColor=none;align=center;fillColor=none;html=1;verticalAlign=middle;whiteSpace=wrap;rounded=0;" parent="1" vertex="1">
          <mxGeometry x="366" y="8" width="60" height="30" as="geometry" />
        </mxCell>
        <mxCell id="fsZiaamCpNhLpa2996Bd-16" value="&lt;font&gt;é substituto&lt;br&gt;de &amp;gt;&lt;/font&gt;" style="shape=rhombus;perimeter=rhombusPerimeter;whiteSpace=wrap;html=1;align=center;fillColor=#CCE5FF;fontColor=#000000;" parent="1" vertex="1">
          <mxGeometry x="615" y="158" width="90" height="80" as="geometry" />
        </mxCell>
        <mxCell id="fsZiaamCpNhLpa2996Bd-18" value="" style="shape=waypoint;fillStyle=solid;size=6;pointerEvents=1;points=[];fillColor=none;resizable=0;rotatable=0;perimeter=centerPerimeter;snapToPoint=1;strokeColor=#000000;fontColor=#1A1A1A;" parent="1" vertex="1">
          <mxGeometry x="581" y="-440" width="20" height="20" as="geometry" />
        </mxCell>
        <mxCell id="fsZiaamCpNhLpa2996Bd-19" value="&lt;b&gt;(RI - 2): &lt;/b&gt;O cliente tem de introduzir mais de um método de pagamento." style="text;strokeColor=none;align=left;fillColor=none;html=1;verticalAlign=middle;whiteSpace=wrap;rounded=0;" parent="1" vertex="1">
          <mxGeometry x="600.04" y="-442" width="223.96" height="30" as="geometry" />
        </mxCell>
        <mxCell id="fsZiaamCpNhLpa2996Bd-22" value="&lt;font&gt;efetua v&lt;/font&gt;" style="shape=rhombus;perimeter=rhombusPerimeter;whiteSpace=wrap;html=1;align=center;fillColor=#CCE5FF;fontColor=#000000;" parent="1" vertex="1">
          <mxGeometry x="-40" y="179" width="80" height="60" as="geometry" />
        </mxCell>
        <mxCell id="fsZiaamCpNhLpa2996Bd-30" value="" style="endArrow=none;html=1;rounded=0;entryX=0;entryY=0.5;entryDx=0;entryDy=0;exitX=0.5;exitY=0;exitDx=0;exitDy=0;" parent="1" source="fsZiaamCpNhLpa2996Bd-22" target="ulnthqZ8hp1moQ3BsTgQ-2" edge="1">
          <mxGeometry relative="1" as="geometry">
            <mxPoint x="-90" y="109" as="sourcePoint" />
            <mxPoint x="70" y="109" as="targetPoint" />
            <Array as="points">
              <mxPoint y="60" />
            </Array>
          </mxGeometry>
        </mxCell>
        <mxCell id="fsZiaamCpNhLpa2996Bd-33" value="" style="endArrow=classic;html=1;rounded=0;shape=flexArrow;entryX=0.5;entryY=1;entryDx=0;entryDy=0;exitX=0;exitY=0.5;exitDx=0;exitDy=0;" parent="1" source="fjhzI5hMC6Ckn3JjvEL3-13" target="fsZiaamCpNhLpa2996Bd-22" edge="1">
          <mxGeometry width="50" height="50" relative="1" as="geometry">
            <mxPoint y="390" as="sourcePoint" />
            <mxPoint y="290" as="targetPoint" />
            <Array as="points">
              <mxPoint y="420" />
            </Array>
          </mxGeometry>
        </mxCell>
        <mxCell id="fsZiaamCpNhLpa2996Bd-35" style="edgeStyle=orthogonalEdgeStyle;shape=link;rounded=0;orthogonalLoop=1;jettySize=auto;html=1;exitX=0;exitY=0.5;exitDx=0;exitDy=0;strokeColor=#736CA8;fontColor=#1A1A1A;entryX=1;entryY=0.5;entryDx=0;entryDy=0;" parent="1" source="fsZiaamCpNhLpa2996Bd-36" edge="1">
          <mxGeometry relative="1" as="geometry">
            <mxPoint x="270" y="420.57" as="targetPoint" />
            <mxPoint x="480" y="420.57" as="sourcePoint" />
            <Array as="points" />
          </mxGeometry>
        </mxCell>
        <mxCell id="fsZiaamCpNhLpa2996Bd-36" value="&lt;font&gt;constituída&lt;br&gt;por &amp;gt;&lt;/font&gt;" style="shape=rhombus;perimeter=rhombusPerimeter;whiteSpace=wrap;html=1;align=center;fillColor=#CCE5FF;fontColor=#000000;" parent="1" vertex="1">
          <mxGeometry x="477" y="391" width="85" height="60" as="geometry" />
        </mxCell>
        <mxCell id="fsZiaamCpNhLpa2996Bd-37" value="" style="endArrow=none;html=1;rounded=0;exitX=1;exitY=0.5;exitDx=0;exitDy=0;entryX=0;entryY=0.5;entryDx=0;entryDy=0;" parent="1" source="fsZiaamCpNhLpa2996Bd-36" target="fjhzI5hMC6Ckn3JjvEL3-52" edge="1">
          <mxGeometry relative="1" as="geometry">
            <mxPoint x="350" y="276.7" as="sourcePoint" />
            <mxPoint x="510" y="276.7" as="targetPoint" />
          </mxGeometry>
        </mxCell>
        <mxCell id="fsZiaamCpNhLpa2996Bd-38" value="" style="endArrow=none;html=1;rounded=0;exitX=0.5;exitY=0;exitDx=0;exitDy=0;entryX=0.5;entryY=1;entryDx=0;entryDy=0;" parent="1" source="fsZiaamCpNhLpa2996Bd-36" target="fsZiaamCpNhLpa2996Bd-39" edge="1">
          <mxGeometry relative="1" as="geometry">
            <mxPoint x="515.5" y="391" as="sourcePoint" />
            <mxPoint x="514.7499999999995" y="310" as="targetPoint" />
          </mxGeometry>
        </mxCell>
        <mxCell id="fsZiaamCpNhLpa2996Bd-39" value="Quantidade de&amp;nbsp;&lt;br&gt;produto encomendado" style="ellipse;whiteSpace=wrap;html=1;align=center;labelBackgroundColor=none;fillColor=#cdeb8b;strokeColor=#36393d;shadow=0;" parent="1" vertex="1">
          <mxGeometry x="459.5" y="250" width="120.5" height="60" as="geometry" />
        </mxCell>
        <mxCell id="fsZiaamCpNhLpa2996Bd-42" value="" style="endArrow=none;html=1;rounded=0;exitX=0.5;exitY=1;exitDx=0;exitDy=0;exitPerimeter=0;entryX=0.5;entryY=1;entryDx=0;entryDy=0;" parent="1" source="fjhzI5hMC6Ckn3JjvEL3-69" target="fsZiaamCpNhLpa2996Bd-1" edge="1">
          <mxGeometry relative="1" as="geometry">
            <mxPoint x="240" y="290" as="sourcePoint" />
            <mxPoint x="400" y="290" as="targetPoint" />
            <Array as="points">
              <mxPoint x="220" y="250" />
              <mxPoint x="140" y="250" />
            </Array>
          </mxGeometry>
        </mxCell>
        <mxCell id="fsZiaamCpNhLpa2996Bd-44" value="" style="endArrow=none;html=1;rounded=0;exitX=0.5;exitY=1;exitDx=0;exitDy=0;exitPerimeter=0;entryX=0.5;entryY=1;entryDx=0;entryDy=0;" parent="1" source="fjhzI5hMC6Ckn3JjvEL3-69" target="fjhzI5hMC6Ckn3JjvEL3-71" edge="1">
          <mxGeometry relative="1" as="geometry">
            <mxPoint x="140" y="200" as="sourcePoint" />
            <mxPoint x="300" y="200" as="targetPoint" />
            <Array as="points">
              <mxPoint x="220" y="250" />
              <mxPoint x="310" y="250" />
            </Array>
          </mxGeometry>
        </mxCell>
        <mxCell id="fsZiaamCpNhLpa2996Bd-45" value="&lt;font&gt;registada&lt;br&gt;com &amp;gt;&lt;/font&gt;" style="shape=rhombus;perimeter=rhombusPerimeter;whiteSpace=wrap;html=1;align=center;fillColor=#CCE5FF;fontColor=#000000;" parent="1" vertex="1">
          <mxGeometry x="401" y="110" width="80" height="60" as="geometry" />
        </mxCell>
        <mxCell id="fsZiaamCpNhLpa2996Bd-47" value="" style="endArrow=none;html=1;rounded=0;exitX=1;exitY=0.5;exitDx=0;exitDy=0;entryX=0;entryY=0.5;entryDx=0;entryDy=0;" parent="1" source="fsZiaamCpNhLpa2996Bd-45" target="fjhzI5hMC6Ckn3JjvEL3-26" edge="1">
          <mxGeometry relative="1" as="geometry">
            <mxPoint x="360" y="110" as="sourcePoint" />
            <mxPoint x="520" y="110" as="targetPoint" />
            <Array as="points">
              <mxPoint x="500" y="140" />
              <mxPoint x="500" y="60" />
            </Array>
          </mxGeometry>
        </mxCell>
        <mxCell id="fsZiaamCpNhLpa2996Bd-48" value="" style="endArrow=classic;html=1;rounded=0;shape=flexArrow;exitX=0.5;exitY=0;exitDx=0;exitDy=0;" parent="1" source="fjhzI5hMC6Ckn3JjvEL3-71" edge="1">
          <mxGeometry width="50" height="50" relative="1" as="geometry">
            <mxPoint x="390" y="269" as="sourcePoint" />
            <mxPoint x="400" y="140" as="targetPoint" />
            <Array as="points">
              <mxPoint x="310" y="180" />
              <mxPoint x="310" y="140" />
            </Array>
          </mxGeometry>
        </mxCell>
        <mxCell id="fsZiaamCpNhLpa2996Bd-49" value="&lt;b&gt;(RI - 3)&lt;/b&gt;" style="text;strokeColor=none;align=center;fillColor=none;html=1;verticalAlign=middle;whiteSpace=wrap;rounded=0;" parent="1" vertex="1">
          <mxGeometry x="408" y="160" width="60" height="30" as="geometry" />
        </mxCell>
        <mxCell id="fsZiaamCpNhLpa2996Bd-50" value="" style="shape=waypoint;fillStyle=solid;size=6;pointerEvents=1;points=[];fillColor=none;resizable=0;rotatable=0;perimeter=centerPerimeter;snapToPoint=1;strokeColor=#000000;fontColor=#1A1A1A;" parent="1" vertex="1">
          <mxGeometry x="582" y="-410" width="20" height="20" as="geometry" />
        </mxCell>
        <mxCell id="fsZiaamCpNhLpa2996Bd-51" value="&lt;b&gt;(RI - 3): &lt;/b&gt;Um&amp;nbsp;cliente não pode pagar encomendas de outro cliente." style="text;strokeColor=none;align=left;fillColor=none;html=1;verticalAlign=middle;whiteSpace=wrap;rounded=0;" parent="1" vertex="1">
          <mxGeometry x="601.04" y="-412" width="223.96" height="30" as="geometry" />
        </mxCell>
        <mxCell id="VXz65jd6t61WfwNRBwZR-2" value="" style="endArrow=none;html=1;rounded=0;exitX=1;exitY=0.5;exitDx=0;exitDy=0;entryX=0;entryY=0;entryDx=0;entryDy=0;" edge="1" parent="1" source="fjhzI5hMC6Ckn3JjvEL3-5" target="ulnthqZ8hp1moQ3BsTgQ-2">
          <mxGeometry relative="1" as="geometry">
            <mxPoint x="10" y="100" as="sourcePoint" />
            <mxPoint x="170" y="100" as="targetPoint" />
          </mxGeometry>
        </mxCell>
        <mxCell id="VXz65jd6t61WfwNRBwZR-3" value="" style="endArrow=none;html=1;rounded=0;exitX=1;exitY=1;exitDx=0;exitDy=0;entryX=0.25;entryY=0;entryDx=0;entryDy=0;" edge="1" parent="1" source="fjhzI5hMC6Ckn3JjvEL3-3" target="ulnthqZ8hp1moQ3BsTgQ-2">
          <mxGeometry relative="1" as="geometry">
            <mxPoint x="10" y="31" as="sourcePoint" />
            <mxPoint x="60" y="50" as="targetPoint" />
          </mxGeometry>
        </mxCell>
        <mxCell id="VXz65jd6t61WfwNRBwZR-4" value="" style="endArrow=none;html=1;rounded=0;exitX=0.5;exitY=1;exitDx=0;exitDy=0;entryX=0.5;entryY=0;entryDx=0;entryDy=0;" edge="1" parent="1" source="fjhzI5hMC6Ckn3JjvEL3-8" target="ulnthqZ8hp1moQ3BsTgQ-2">
          <mxGeometry relative="1" as="geometry">
            <mxPoint x="60" y="-47" as="sourcePoint" />
            <mxPoint x="135" y="38" as="targetPoint" />
          </mxGeometry>
        </mxCell>
        <mxCell id="VXz65jd6t61WfwNRBwZR-5" value="" style="endArrow=none;html=1;rounded=0;exitX=0;exitY=1;exitDx=0;exitDy=0;entryX=0.75;entryY=0;entryDx=0;entryDy=0;" edge="1" parent="1" source="fjhzI5hMC6Ckn3JjvEL3-2" target="ulnthqZ8hp1moQ3BsTgQ-2">
          <mxGeometry relative="1" as="geometry">
            <mxPoint x="119.96" y="-47" as="sourcePoint" />
            <mxPoint x="169.95999999999998" y="38" as="targetPoint" />
          </mxGeometry>
        </mxCell>
        <mxCell id="VXz65jd6t61WfwNRBwZR-6" value="" style="endArrow=none;html=1;rounded=0;exitX=1;exitY=0;exitDx=0;exitDy=0;entryX=0;entryY=0.5;entryDx=0;entryDy=0;" edge="1" parent="1" source="ulnthqZ8hp1moQ3BsTgQ-2" target="fjhzI5hMC6Ckn3JjvEL3-6">
          <mxGeometry relative="1" as="geometry">
            <mxPoint x="160" y="22" as="sourcePoint" />
            <mxPoint x="210" y="41" as="targetPoint" />
          </mxGeometry>
        </mxCell>
        <mxCell id="VXz65jd6t61WfwNRBwZR-7" value="" style="endArrow=none;html=1;rounded=0;exitX=0.5;exitY=1;exitDx=0;exitDy=0;entryX=0.25;entryY=0;entryDx=0;entryDy=0;" edge="1" parent="1" source="fjhzI5hMC6Ckn3JjvEL3-28" target="fjhzI5hMC6Ckn3JjvEL3-26">
          <mxGeometry relative="1" as="geometry">
            <mxPoint x="500" y="-11" as="sourcePoint" />
            <mxPoint x="550" y="8" as="targetPoint" />
          </mxGeometry>
        </mxCell>
        <mxCell id="VXz65jd6t61WfwNRBwZR-8" value="" style="endArrow=none;html=1;rounded=0;exitX=0.5;exitY=1;exitDx=0;exitDy=0;entryX=0.75;entryY=0;entryDx=0;entryDy=0;" edge="1" parent="1" source="fjhzI5hMC6Ckn3JjvEL3-27" target="fjhzI5hMC6Ckn3JjvEL3-26">
          <mxGeometry relative="1" as="geometry">
            <mxPoint x="649" y="-32" as="sourcePoint" />
            <mxPoint x="696" y="50" as="targetPoint" />
          </mxGeometry>
        </mxCell>
        <mxCell id="VXz65jd6t61WfwNRBwZR-9" value="" style="endArrow=none;html=1;rounded=0;entryX=0.25;entryY=0;entryDx=0;entryDy=0;exitX=0.5;exitY=1;exitDx=0;exitDy=0;" edge="1" parent="1" source="fjhzI5hMC6Ckn3JjvEL3-60" target="fjhzI5hMC6Ckn3JjvEL3-52">
          <mxGeometry relative="1" as="geometry">
            <mxPoint x="670" y="260" as="sourcePoint" />
            <mxPoint x="751.5" y="304" as="targetPoint" />
          </mxGeometry>
        </mxCell>
        <mxCell id="VXz65jd6t61WfwNRBwZR-10" value="" style="endArrow=none;html=1;rounded=0;entryX=0.75;entryY=0;entryDx=0;entryDy=0;exitX=0;exitY=1;exitDx=0;exitDy=0;" edge="1" parent="1" source="fjhzI5hMC6Ckn3JjvEL3-56" target="fjhzI5hMC6Ckn3JjvEL3-52">
          <mxGeometry relative="1" as="geometry">
            <mxPoint x="900" y="340.5" as="sourcePoint" />
            <mxPoint x="985" y="419.5" as="targetPoint" />
          </mxGeometry>
        </mxCell>
        <mxCell id="VXz65jd6t61WfwNRBwZR-11" value="" style="endArrow=none;html=1;rounded=0;exitX=0;exitY=0.5;exitDx=0;exitDy=0;entryX=1;entryY=0;entryDx=0;entryDy=0;" edge="1" parent="1" source="fjhzI5hMC6Ckn3JjvEL3-53" target="fjhzI5hMC6Ckn3JjvEL3-52">
          <mxGeometry relative="1" as="geometry">
            <mxPoint x="945" y="324" as="sourcePoint" />
            <mxPoint x="930" y="410" as="targetPoint" />
          </mxGeometry>
        </mxCell>
        <mxCell id="VXz65jd6t61WfwNRBwZR-12" value="" style="endArrow=none;html=1;rounded=0;exitX=0;exitY=0;exitDx=0;exitDy=0;entryX=1;entryY=0.5;entryDx=0;entryDy=0;" edge="1" parent="1" source="fjhzI5hMC6Ckn3JjvEL3-59" target="fjhzI5hMC6Ckn3JjvEL3-52">
          <mxGeometry relative="1" as="geometry">
            <mxPoint x="970" y="390" as="sourcePoint" />
            <mxPoint x="920" y="409" as="targetPoint" />
          </mxGeometry>
        </mxCell>
        <mxCell id="VXz65jd6t61WfwNRBwZR-13" value="" style="endArrow=none;html=1;rounded=0;exitX=0.5;exitY=1;exitDx=0;exitDy=0;entryX=0.5;entryY=0;entryDx=0;entryDy=0;" edge="1" parent="1" source="fjhzI5hMC6Ckn3JjvEL3-13" target="fjhzI5hMC6Ckn3JjvEL3-18">
          <mxGeometry relative="1" as="geometry">
            <mxPoint x="401" y="539" as="sourcePoint" />
            <mxPoint x="351" y="558" as="targetPoint" />
          </mxGeometry>
        </mxCell>
        <mxCell id="VXz65jd6t61WfwNRBwZR-14" value="" style="endArrow=none;html=1;rounded=0;exitX=1;exitY=1;exitDx=0;exitDy=0;entryX=0;entryY=0;entryDx=0;entryDy=0;" edge="1" parent="1" source="fjhzI5hMC6Ckn3JjvEL3-13" target="fjhzI5hMC6Ckn3JjvEL3-14">
          <mxGeometry relative="1" as="geometry">
            <mxPoint x="259.31" y="451" as="sourcePoint" />
            <mxPoint x="259.31" y="528" as="targetPoint" />
          </mxGeometry>
        </mxCell>
        <mxCell id="VXz65jd6t61WfwNRBwZR-15" value="" style="endArrow=none;html=1;rounded=0;exitX=0;exitY=1;exitDx=0;exitDy=0;entryX=1;entryY=0;entryDx=0;entryDy=0;" edge="1" parent="1" source="fjhzI5hMC6Ckn3JjvEL3-13" target="fjhzI5hMC6Ckn3JjvEL3-15">
          <mxGeometry relative="1" as="geometry">
            <mxPoint x="160" y="470" as="sourcePoint" />
            <mxPoint x="195" y="513" as="targetPoint" />
          </mxGeometry>
        </mxCell>
        <mxCell id="VXz65jd6t61WfwNRBwZR-16" value="" style="endArrow=none;html=1;rounded=0;exitX=0;exitY=0.5;exitDx=0;exitDy=0;entryX=1;entryY=0;entryDx=0;entryDy=0;" edge="1" parent="1" source="fjhzI5hMC6Ckn3JjvEL3-138" target="fjhzI5hMC6Ckn3JjvEL3-134">
          <mxGeometry relative="1" as="geometry">
            <mxPoint x="70" y="690" as="sourcePoint" />
            <mxPoint x="105" y="733" as="targetPoint" />
          </mxGeometry>
        </mxCell>
        <mxCell id="VXz65jd6t61WfwNRBwZR-17" value="" style="endArrow=none;html=1;rounded=0;exitX=0;exitY=1;exitDx=0;exitDy=0;entryX=0.75;entryY=0;entryDx=0;entryDy=0;" edge="1" parent="1" source="fjhzI5hMC6Ckn3JjvEL3-135" target="fjhzI5hMC6Ckn3JjvEL3-134">
          <mxGeometry relative="1" as="geometry">
            <mxPoint x="-96.03" y="620" as="sourcePoint" />
            <mxPoint x="-146.03" y="639" as="targetPoint" />
          </mxGeometry>
        </mxCell>
        <mxCell id="VXz65jd6t61WfwNRBwZR-18" value="" style="endArrow=none;html=1;rounded=0;exitX=1;exitY=1;exitDx=0;exitDy=0;entryX=0.25;entryY=0;entryDx=0;entryDy=0;" edge="1" parent="1" source="fjhzI5hMC6Ckn3JjvEL3-149" target="fjhzI5hMC6Ckn3JjvEL3-134">
          <mxGeometry relative="1" as="geometry">
            <mxPoint x="-150" y="570" as="sourcePoint" />
            <mxPoint x="-200" y="655" as="targetPoint" />
          </mxGeometry>
        </mxCell>
        <mxCell id="VXz65jd6t61WfwNRBwZR-19" value="" style="endArrow=none;html=1;rounded=0;exitX=1;exitY=0.5;exitDx=0;exitDy=0;entryX=0;entryY=0;entryDx=0;entryDy=0;" edge="1" parent="1" source="fjhzI5hMC6Ckn3JjvEL3-137" target="fjhzI5hMC6Ckn3JjvEL3-134">
          <mxGeometry relative="1" as="geometry">
            <mxPoint x="-240" y="646.5" as="sourcePoint" />
            <mxPoint x="-290" y="731.5" as="targetPoint" />
          </mxGeometry>
        </mxCell>
        <mxCell id="VXz65jd6t61WfwNRBwZR-20" value="" style="endArrow=none;html=1;rounded=0;exitX=0.5;exitY=1;exitDx=0;exitDy=0;entryX=0.75;entryY=0;entryDx=0;entryDy=0;" edge="1" parent="1" source="fjhzI5hMC6Ckn3JjvEL3-157" target="fjhzI5hMC6Ckn3JjvEL3-156">
          <mxGeometry relative="1" as="geometry">
            <mxPoint x="10" y="807.5" as="sourcePoint" />
            <mxPoint x="-40" y="892.5" as="targetPoint" />
          </mxGeometry>
        </mxCell>
        <mxCell id="VXz65jd6t61WfwNRBwZR-21" value="" style="endArrow=none;html=1;rounded=0;exitX=0.5;exitY=1;exitDx=0;exitDy=0;entryX=0.25;entryY=0;entryDx=0;entryDy=0;" edge="1" parent="1" source="fjhzI5hMC6Ckn3JjvEL3-159" target="fjhzI5hMC6Ckn3JjvEL3-156">
          <mxGeometry relative="1" as="geometry">
            <mxPoint x="-282" y="807.5" as="sourcePoint" />
            <mxPoint x="-332" y="892.5" as="targetPoint" />
          </mxGeometry>
        </mxCell>
        <mxCell id="VXz65jd6t61WfwNRBwZR-22" value="" style="endArrow=none;html=1;rounded=0;exitX=0.5;exitY=1;exitDx=0;exitDy=0;entryX=0.5;entryY=0;entryDx=0;entryDy=0;" edge="1" parent="1" source="fjhzI5hMC6Ckn3JjvEL3-91" target="fjhzI5hMC6Ckn3JjvEL3-90">
          <mxGeometry relative="1" as="geometry">
            <mxPoint x="-500" y="892" as="sourcePoint" />
            <mxPoint x="-450" y="911" as="targetPoint" />
          </mxGeometry>
        </mxCell>
        <mxCell id="VXz65jd6t61WfwNRBwZR-23" value="" style="endArrow=none;html=1;rounded=0;exitX=1;exitY=1;exitDx=0;exitDy=0;entryX=0.25;entryY=0;entryDx=0;entryDy=0;" edge="1" parent="1" source="fjhzI5hMC6Ckn3JjvEL3-87" target="fjhzI5hMC6Ckn3JjvEL3-76">
          <mxGeometry relative="1" as="geometry">
            <mxPoint x="-580" y="730" as="sourcePoint" />
            <mxPoint x="-580" y="771" as="targetPoint" />
          </mxGeometry>
        </mxCell>
        <mxCell id="VXz65jd6t61WfwNRBwZR-24" value="" style="endArrow=none;html=1;rounded=0;exitX=0.5;exitY=1;exitDx=0;exitDy=0;entryX=0.5;entryY=0;entryDx=0;entryDy=0;" edge="1" parent="1" source="fjhzI5hMC6Ckn3JjvEL3-84" target="fjhzI5hMC6Ckn3JjvEL3-76">
          <mxGeometry relative="1" as="geometry">
            <mxPoint x="-550" y="729" as="sourcePoint" />
            <mxPoint x="-550" y="770" as="targetPoint" />
          </mxGeometry>
        </mxCell>
        <mxCell id="VXz65jd6t61WfwNRBwZR-25" value="" style="endArrow=none;html=1;rounded=0;exitX=0;exitY=1;exitDx=0;exitDy=0;entryX=0.75;entryY=0;entryDx=0;entryDy=0;" edge="1" parent="1" source="fjhzI5hMC6Ckn3JjvEL3-78" target="fjhzI5hMC6Ckn3JjvEL3-76">
          <mxGeometry relative="1" as="geometry">
            <mxPoint x="-500" y="739" as="sourcePoint" />
            <mxPoint x="-490" y="670" as="targetPoint" />
          </mxGeometry>
        </mxCell>
      </root>
    </mxGraphModel>
  </diagram>
</mxfile>
